#N canvas 511 72 658 527 10;
#X obj 113 45 netreceive -u -b 9003;
#X obj 113 67 oscparse;
#X obj 113 89 route list;
#X obj 113 111 route playsound;
#X obj 112 133 unpack f f f f f f, f 37;
#X floatatom 69 161 5 0 0 0 - - -, f 5;
#X floatatom 128 161 5 0 0 0 - - -, f 5;
#X floatatom 179 161 5 0 0 0 - - -, f 5;
#X floatatom 234 161 5 0 0 0 - - -, f 5;
#N canvas 199 192 673 584 waveBuffer 0;
#X obj 70 249 soundfiler;
#X floatatom 70 278 10 0 0 0 - - -, f 10;
#X text 149 275 Total samples;
#X obj 70 304 / 44.1;
#X obj 189 402 line~;
#X msg 189 379 1 20;
#X msg 247 153 stop;
#X msg 70 373 0;
#X obj 70 431 *~;
#X obj 70 338 t b;
#X obj 70 192 symbol;
#X obj 70 466 outlet~;
#X text 134 467 Signal output;
#X text 73 32 Arguments: filename \, stop (bang);
#X obj 70 141 loadbang;
#X obj 169 76 inlet #onOff;
#X obj 169 142 metro;
#X obj 247 125 sel 0;
#X msg 70 167 rain.wav;
#X obj 70 402 tabplay~ buffer1;
#N canvas 0 22 450 278 (subpatch) 0;
#X array buffer1 857085 float 2;
#X coords 0 1 857085 -1 200 140 1;
#X restore 373 157 graph;
#X msg 70 220 read -resize \$1 buffer1;
#X connect 0 0 1 0;
#X connect 1 0 3 0;
#X connect 3 0 9 0;
#X connect 3 0 16 1;
#X connect 4 0 8 1;
#X connect 5 0 4 0;
#X connect 6 0 19 0;
#X connect 7 0 19 0;
#X connect 8 0 11 0;
#X connect 9 0 5 0;
#X connect 9 0 7 0;
#X connect 10 0 21 0;
#X connect 14 0 18 0;
#X connect 15 0 16 0;
#X connect 15 0 17 0;
#X connect 16 0 18 0;
#X connect 17 0 6 0;
#X connect 18 0 10 0;
#X connect 19 0 8 0;
#X connect 21 0 0 0;
#X restore 408 87 pd waveBuffer;
#X obj 421 11 tgl 15 0 empty empty empty 17 7 0 10 -262144 -1 -1 0
1;
#N canvas 118 265 636 513 soundTrigger 0;
#X msg 71 161 1;
#X msg 126 160 0;
#X obj 71 184 t f b;
#X msg 71 122 play;
#X msg 126 122 stop;
#X obj 71 74 inlet #play;
#X obj 157 74 inlet #stop;
#X text 70 33 Arguments: play (bang) \, stop (bang);
#X text 312 337 modify the name of the sample as you desire;
#X obj 71 292 outlet~ #left;
#X obj 178 292 outlet~ #right;
#X obj 71 234 readsf~ 2;
#X msg 103 211 open rain.wav;
#X connect 0 0 2 0;
#X connect 1 0 11 0;
#X connect 2 0 11 0;
#X connect 2 1 12 0;
#X connect 3 0 0 0;
#X connect 4 0 1 0;
#X connect 5 0 3 0;
#X connect 6 0 4 0;
#X connect 11 0 9 0;
#X connect 11 1 10 0;
#X connect 12 0 11 0;
#X restore 314 330 pd soundTrigger;
#X obj 314 263 bng 15 250 50 0 empty empty empty 17 7 0 10 -262144
-1 -1;
#X obj 416 264 bng 15 250 50 0 empty empty empty 17 7 0 10 -262144
-1 -1;
#X obj 314 465 dac~ 1 2 3 4;
#X obj 314 402 *~;
#X obj 344 402 *~;
#X obj 373 402 *~;
#X obj 403 402 *~;
#X floatatom 298 161 5 0 0 0 - - -, f 5;
#X floatatom 359 161 5 0 0 0 - - -, f 5;
#X obj 128 183 s c1;
#X obj 179 183 s c2;
#X obj 232 182 s c3;
#X obj 298 182 s c4;
#X obj 403 364 r c1;
#X obj 450 364 r c2;
#X obj 496 364 r c3;
#X obj 541 364 r c4;
#X connect 0 0 1 0;
#X connect 1 0 2 0;
#X connect 2 0 3 0;
#X connect 3 0 4 0;
#X connect 4 0 5 0;
#X connect 4 1 6 0;
#X connect 4 2 7 0;
#X connect 4 3 8 0;
#X connect 4 4 19 0;
#X connect 4 5 20 0;
#X connect 6 0 21 0;
#X connect 7 0 22 0;
#X connect 8 0 23 0;
#X connect 10 0 9 0;
#X connect 11 0 15 0;
#X connect 11 0 16 0;
#X connect 11 0 17 0;
#X connect 11 0 18 0;
#X connect 12 0 11 0;
#X connect 13 0 11 1;
#X connect 15 0 14 0;
#X connect 16 0 14 1;
#X connect 17 0 14 2;
#X connect 18 0 14 3;
#X connect 19 0 24 0;
#X connect 25 0 15 1;
#X connect 26 0 16 1;
#X connect 27 0 17 1;
#X connect 28 0 18 1;
